<svg id="Layer_1" data-name="Layer 1" xmlns="http://www.w3.org/2000/svg" viewBox="0 0 1479.87 356.68"><defs><style>.cls-1{fill:#231f20;}.cls-2{fill:#043927;}.cls-3{font-size:36px;fill:#c4b581;font-family:MyriadConceptRoman-Bold, Myriad Variable Concept;font-weight:700;}.cls-4{letter-spacing:-0.01em;}.cls-5,.cls-6,.cls-7,.cls-8,.cls-9{font-size:72px;}.cls-5{letter-spacing:0.01em;}.cls-7{letter-spacing:0em;}.cls-8{letter-spacing:-0.01em;}.cls-9{letter-spacing:0em;}</style></defs><path class="cls-1" d="M254,138.49c0-43.46.07-86.91-.11-130.37,0-4.35,1.13-5.31,5.36-5.29,38,.18,76,.09,114.07.11C392.05,3,405,15.87,405,34.53q0,104.21,0,208.41c0,18.63-12.58,31.18-31.4,31.21-38.34.05-76.69-.06-115,.12-4,0-4.68-1.32-4.67-4.91Q254.08,203.91,254,138.49Zm120.77.72c0-33.77-.05-67.55.08-101.32,0-3.45-.6-4.68-4.42-4.65q-40.79.27-81.57,0c-3.65,0-4.5.9-4.5,4.51q.18,100.83,0,201.67c0,4,1.32,4.61,4.87,4.59q40.31-.19,80.6,0c4,0,5.09-.84,5.07-5C374.67,205.79,374.75,172.5,374.75,139.21Z"/><path class="cls-1" d="M572.9,196.3c0,24.4-.09,48.8.09,73.2,0,3.86-1,4.76-4.82,4.75-38.35-.14-76.7,0-115-.11-19.33,0-31.38-12.2-31.42-31.56q0-28.59,0-57.19c0-19.38,12.49-31.8,31.85-31.8,28,0,56-.1,84,.1,4.15,0,5.2-1.21,5-5.15a189.81,189.81,0,0,1,0-19.38c.22-4.22-.76-5.63-5.38-5.6-37.22.22-74.44.06-111.65.22-3.92,0-5.28-.73-5.05-4.91.39-7.25.19-14.53.06-21.8,0-2.48.27-3.69,3.29-3.68,40.46.1,80.91-.07,121.37.15,14.75.07,27.67,14.43,27.7,30.06C572.94,147.83,572.9,172.07,572.9,196.3Zm-75.6,47.64c13.74,0,27.48-.1,41.22.07,3.16,0,4-.8,4-4q-.24-26.16,0-52.3c0-3.18-.85-4-4-4q-41.22.18-82.45,0c-3.15,0-4,.8-4,4q.24,26.16,0,52.3c0,3.18.84,4,4,4C469.81,243.84,483.56,243.94,497.3,243.94Z"/><path class="cls-1" d="M869.77,195.93c0,24.57-.06,49.13.08,73.69,0,3.45-.58,4.66-4.41,4.64-38.52-.16-77-.05-115.56-.12-19.12,0-31.12-12.18-31.13-31.27q0-29.09,0-58.18c0-18.45,12.59-31.09,31-31.1,28.33,0,56.65-.09,85,.09,3.92,0,4.9-1.11,4.74-4.84-.29-6.94-.34-13.91,0-20.84.19-3.81-1.12-4.41-4.59-4.4-37.38.13-74.77,0-112.16.2-4.37,0-5.4-1.12-5.19-5.29.37-7.26.2-14.54,0-21.81,0-2.5.61-3.3,3.22-3.3,40.46.08,80.93-.1,121.39.15,15,.09,27.55,14.4,27.59,30.63C869.82,148.1,869.77,172,869.77,195.93Zm-75.24-12.12c-13.91,0-27.81.07-41.71-.06-2.83,0-3.91.51-3.88,3.66q.25,26.4,0,52.79c0,2.93.67,3.82,3.73,3.81q41.46-.18,82.93,0c2.89,0,3.84-.56,3.82-3.66q-.25-26.4,0-52.79c0-3.47-1.3-3.82-4.17-3.79C821.69,183.88,808.11,183.81,794.53,183.81Z"/><path class="cls-1" d="M1028.11,183.7q0-29.32,0-58.66c0-19.34,12.18-31.58,31.37-31.58h89.34a30,30,0,0,1,30.29,30c.11,18.75-.07,37.5.11,56.24,0,3.46-.92,4.2-4.27,4.19-37.22-.13-74.45,0-111.68-.16-3.61,0-4.9.65-4.84,4.63.25,17,.22,33.94,0,50.91,0,3.72.83,4.78,4.7,4.76,37.06-.16,74.13,0,111.19-.2,4.2,0,5.07,1.17,4.89,5.07-.33,7.26-.21,14.54,0,21.81.07,2.71-.68,3.52-3.46,3.51-39.33-.09-78.67.07-118-.12-17.6-.09-29.52-12.52-29.6-30.28C1028,223.78,1028.11,203.74,1028.11,183.7Zm75.26-30.11c13.9,0,27.8-.08,41.69.06,2.91,0,4-.67,3.88-3.75-.22-7.58-.19-15.17,0-22.75.06-2.74-.73-3.54-3.51-3.53q-41.68.15-83.38,0c-3.26,0-3.62,1.21-3.56,3.91.16,7.1.25,14.2,0,21.29-.14,3.64.67,5,4.68,4.89C1076.55,153.41,1090,153.59,1103.37,153.59Z"/><path class="cls-1" d="M1282.74,93.46c19.9,0,39.81.08,59.71-.08,3.35,0,4.44.8,4.3,4.25-.27,6.93-.32,13.9,0,20.83.2,4.08-.7,5.37-5.15,5.34-36.73-.21-73.47,0-110.2-.21-4.23,0-5.92.76-5.61,5.41a194.54,194.54,0,0,1,0,20.35c-.13,3.4.88,4.33,4.3,4.31,28-.13,56,.5,84-.3,15.91-.44,32.35,11.79,32.47,30.07.13,20.67.45,41.37-.35,62-.7,17.84-13.15,28.69-31.19,28.71q-51.46.06-102.92,0c-4.37,0-8.75-.17-13.1.06-2.84.16-3.5-.88-3.44-3.54.17-7.26.3-14.55,0-21.8-.19-3.95.76-5.08,4.91-5,33.82.19,67.64.11,101.46.11,3.72,0,7.45-.12,11.17,0,2.24.1,3.06-.49,3.05-2.91-.1-18.09-.15-36.19,0-54.29,0-3.46-1.85-3-4-3h-85c-19.8,0-31.62-11.84-31.62-31.63,0-9.86,0-19.71,0-29.57A29.08,29.08,0,0,1,1225,93.47C1244.22,93.42,1263.48,93.46,1282.74,93.46Z"/><path class="cls-1" d="M888.56,138.72c0-43.62.06-87.25-.1-130.87,0-4.09,1-5,5-5q70.63.23,141.27,0c3.86,0,4.9,1,4.74,4.8-.3,7.09-.33,14.22,0,21.32.18,3.82-1.18,4.44-4.65,4.43-36.9-.12-73.79,0-110.69-.18-4.25,0-5.39,1-5.31,5.27.28,16.64.24,33.28,0,49.92,0,3.91.83,5.17,5,5.14,26.86-.2,53.72,0,80.58-.21,4.12,0,5.16,1.06,5,5.05-.35,6.93-.31,13.9,0,20.83.15,3.55-.71,4.58-4.44,4.55-26.86-.18-53.73,0-80.59-.21-4.45,0-5.51,1.13-5.49,5.52.17,46.7.05,93.39.19,140.09,0,3.87-.67,5.34-4.9,5.09a184.74,184.74,0,0,0-20.38,0c-4.1.21-5.38-.7-5.36-5.15.2-41.85.12-83.69.12-125.54Z"/><path class="cls-1" d="M1389.09,186.33c0-19.39-.09-38.78.08-58.16,0-3.44-.54-4.78-4.39-4.59-7.43.36-14.89,0-22.33.16-2.73.06-3.59-.73-3.53-3.5q.27-11.62,0-23.26c-.06-2.73.7-3.65,3.51-3.58,7.28.18,14.57-.23,21.83.17,4.28.23,4.94-1.33,4.92-5.17-.17-26.81,0-53.63-.18-80.45,0-4,.86-5.32,5-5.12,7.1.36,14.24.29,21.35,0,3.52-.13,4.26,1.11,4.24,4.4-.12,27,0,54-.16,80.93,0,4.17.85,5.47,5.27,5.4,17-.3,34,0,51-.19,3,0,4.27.59,4.16,4-.26,7.42-.29,14.86,0,22.28.15,3.61-1.21,4.16-4.41,4.13-17.15-.15-34.3,0-51.45-.16-3.58,0-4.55.78-4.54,4.47q.24,55.74,0,111.47c0,3.64.88,4.55,4.51,4.5,17-.21,34,.07,51-.21,4.21-.06,5.1,1.21,4.93,5.12-.33,7.1-.2,14.22,0,21.32.06,2.73-.37,4-3.62,4-19.25-.16-38.51.13-57.76-.14-17.31-.25-29.3-12.78-29.33-30.1C1389.06,224.78,1389.09,205.55,1389.09,186.33Z"/><path class="cls-1" d="M613.69,186.93c0-19.55-.12-39.1.1-58.64.05-3.94-1.14-4.83-4.84-4.69-7.27.28-14.56,0-21.84.14-2.6.05-3.67-.49-3.6-3.38.2-7.92.18-15.84,0-23.75-.06-2.62.82-3.26,3.31-3.2,7.28.14,14.57-.18,21.84.14,4,.17,5.15-.9,5.12-5-.19-26.82,0-53.64-.21-80.45,0-4.27,1-5.51,5.29-5.26a201.59,201.59,0,0,0,20.86,0c3.74-.18,4.49,1,4.47,4.57-.15,26.82.07,53.64-.21,80.45,0,4.88,1.42,5.76,5.93,5.69,16.82-.28,33.65,0,50.48-.18,3.15,0,4.12.79,4,4-.24,7.43-.3,14.87,0,22.29.16,3.63-1.19,4.12-4.38,4.09-17.15-.15-34.31,0-51.45-.16-3.57,0-4.59.76-4.57,4.48q.22,55.73,0,111.46c0,3.68.94,4.54,4.55,4.5,17-.2,34,.07,51-.21,4.21-.07,5.07,1.19,4.9,5.09-.33,7.25-.22,14.54,0,21.8.07,2.75-.72,3.53-3.5,3.51-19.25-.11-38.51.14-57.76-.12-17-.23-29-12-29.33-29-.36-19.38-.08-38.77-.08-58.16Z"/><path class="cls-2" d="M461.52,44.83c0,10.18-.17,20.36.1,30.54.09,3.58-1.47,3.82-4.28,3.77s-4.47,0-4.37-3.73c.27-10.66-.17-21.34.22-32,.16-4.5-1.34-5.46-5.42-5.16a87,87,0,0,1-14.07,0c-4.27-.38-5,1.28-4.93,5.14.27,10.5,0,21,.18,31.51.07,3.44-1,4.24-4.34,4.31-3.61.08-4.14-1.21-4.12-4.42.15-19.88.06-39.76.08-59.63,0-6.88,2.76-9.59,9.74-9.63,7.29,0,14.57-.06,21.85,0,6.15.06,9.28,3.1,9.34,9.23C461.59,24.79,461.52,34.81,461.52,44.83ZM440.94,13.94c-12.81,0-12.81,0-12.15,12.81a2.57,2.57,0,0,1,0,.48c-.17,2,.59,2.95,2.75,2.92,6.3-.08,12.6-.06,18.91,0,1.76,0,2.47-.6,2.73-2.47,1.73-12.86,1-13.73-11.76-13.73Z"/><path class="cls-2" d="M170,92.65a21.91,21.91,0,0,1-22.32-22.33,22.35,22.35,0,0,1,44.69,0A21.91,21.91,0,0,1,170,92.65Z"/><path class="cls-2" d="M142.82,70.54c0,12.5-9.87,22.17-22.56,22.11S98.05,82.86,98.1,70.14,107.92,48,120.66,48C133.23,48.08,142.83,57.82,142.82,70.54Z"/><path class="cls-2" d="M93.34,119a22.32,22.32,0,0,1-22.65,21.72c-12.9-.17-22.53-10.48-22.12-23.68.36-11.71,10.77-21.51,22.63-21.3A22.46,22.46,0,0,1,93.34,119Z"/><path class="cls-2" d="M219.83,48c12.54.06,22.11,9.9,22,22.65-.08,12.52-9.92,22-22.71,22A22.1,22.1,0,0,1,197.07,70C197.22,57.52,207.11,48,219.83,48Z"/><path class="cls-2" d="M192.32,22.51a22.35,22.35,0,1,1-44.69-.13,22.35,22.35,0,1,1,44.69.13Z"/><path class="cls-2" d="M241.85,22.41a22.4,22.4,0,1,1-44.79.08,22.4,22.4,0,1,1,44.79-.08Z"/><path class="cls-2" d="M197.06,118.44a22.4,22.4,0,1,1,44.79-.41,22.4,22.4,0,1,1-44.79.41Z"/><path class="cls-2" d="M44.79,118.19a22.33,22.33,0,0,1-22.38,22.5,22.49,22.49,0,0,1-.08-45A22.46,22.46,0,0,1,44.79,118.19Z"/><path class="cls-2" d="M142.83,118.46a22.37,22.37,0,1,1-22.14-22.75A22.24,22.24,0,0,1,142.83,118.46Z"/><path class="cls-2" d="M192.32,118.08a22.35,22.35,0,1,1-22.5-22.37A22.17,22.17,0,0,1,192.32,118.08Z"/><path class="cls-2" d="M93.39,70.13A22.18,22.18,0,0,1,71.63,92.65c-13.1.15-23-9.33-23.07-22.11A22,22,0,0,1,70.74,48,22.13,22.13,0,0,1,93.39,70.13Z"/><path class="cls-2" d="M192.32,211.88a22.35,22.35,0,1,1-22.5-22.25A22.05,22.05,0,0,1,192.32,211.88Z"/><path class="cls-2" d="M241.85,212a22.39,22.39,0,1,1-22.44-22.32A22.08,22.08,0,0,1,241.85,212Z"/><path class="cls-2" d="M142.82,258.73a22.36,22.36,0,1,1-22.24-22.55A22.23,22.23,0,0,1,142.82,258.73Z"/><path class="cls-2" d="M241.85,258.93c-.08,12.51-10,22.11-22.68,22a22.39,22.39,0,1,1,22.68-22Z"/><path class="cls-2" d="M192.32,258.6A22.35,22.35,0,1,1,170,236.18,22.2,22.2,0,0,1,192.32,258.6Z"/><path class="cls-2" d="M120.75,143.89c12.67.06,22.1,9.72,22,22.57a22.34,22.34,0,1,1-44.68-.59C98.15,153.35,108,143.82,120.75,143.89Z"/><path class="cls-2" d="M170.17,143.89c12.69,0,22.19,9.68,22.15,22.47a22.35,22.35,0,1,1-44.69-.39C147.68,153.37,157.41,143.84,170.17,143.89Z"/><path class="cls-2" d="M219.87,143.89c12.56.1,22.09,9.92,22,22.64a22.4,22.4,0,1,1-44.8-.74C197.19,153.35,207.16,143.78,219.87,143.89Z"/><path class="cls-2" d="M511.05,54.53c0,5.33.11,10.65,0,16-.14,5.7-3.09,8.52-8.81,8.55-9.54,0-19.08-.15-28.62.1-3.3.09-3.7-1.27-3.54-4,.15-2.45-.44-4.68,3.56-4.52,8.39.33,16.81,0,25.21.16,3,.06,3.89-.93,3.83-3.87q-.24-12.58,0-25.18c0-2.78-.83-3.58-3.56-3.51-6.79.17-13.58.1-20.37,0-5.8-.06-8.55-2.82-8.62-8.63-.06-5.33-.09-10.66,0-16,.1-4.84,3-8,7.76-8.13,10.18-.2,20.37,0,30.55-.1,3.69,0,2.47,2.59,2.59,4.41.14,2,.55,4.18-2.92,4.1-8.57-.19-17.14.07-25.7-.13-3.17-.07-4.07.88-4.08,4.05-.06,12.14-.17,12.13,12,12.13,4,0,8.09-.09,12.12,0,5.29.16,8.43,3.22,8.58,8.47S511.05,49.2,511.05,54.53Z"/><path class="cls-1" d="M1454.24,14.36c-.1,2.21-.26,4.42-.28,6.63,0,1.35-.39,2.21-1.9,2.06s-1.22-1.2-1.14-2.16c.27-3.69.53-7.39.82-11.08.09-1.21-.21-2.67,1.87-2.59,1.65.06,3.1-.09,3.69,2.09.73,2.77,1.85,5.44,3,8.63,1-3.14,2-5.77,2.79-8.48.54-2,1.74-2.31,3.56-2.25,2.29.08,1.93,1.61,2,3,.24,3,.71,6.09.72,9.13,0,1.22,1.64,3.55-1.35,3.66-2.48.09-1.48-2-1.64-3.21-.32-2.39-.5-4.79-.88-8.6-1.34,4-2.26,6.77-3.19,9.53-.35,1.05-.52,2.16-2.1,2.16s-2.15-.78-2.53-2.24c-.58-2.23-1.5-4.38-2.27-6.56Z"/><path class="cls-1" d="M1443.74,7.25c1.13,0,2.26-.07,3.39,0s2.51-.55,2.77,1c.32,2-1.3,1.93-2.57,1.83-1.87-.16-2.06.87-2,2.34a54.45,54.45,0,0,1,0,6.76c-.13,1.33,1.21,3.63-1.43,3.79s-1.54-2.23-1.7-3.57a33.68,33.68,0,0,1,0-4.82c0-2.4.6-5.13-3.41-4.53-1,.14-1.38-.67-1.4-1.55,0-1.07.75-1.26,1.61-1.26Z"/><path class="cls-2" d="M559.58,14.43c0-5.79-3.27-8.83-9.17-8.89q-11.42-.12-22.82,0c-6,.07-8.89,3-8.91,9,0,10,0,20,0,30.06,0,10.18.12,20.36-.07,30.54-.06,3.12.75,4.12,4,4.06s4.57-.48,4.48-4.15c-.25-11,0-22-.15-33,0-2.95.75-3.94,3.78-3.81,5.49.25,11,.25,16.5,0,3.19-.14,4.11.84,4.05,4-.19,11.15.07,22.31-.15,33.45-.07,3.58,1.82,3.45,4.22,3.33,2.13-.1,4.43.77,4.4-3.08C559.53,55.47,559.67,35,559.58,14.43Zm-21,15.7c-11.87,0-11.76,0-11.79-11.85,0-3.23.64-4.61,4.21-4.42,5.48.3,11,.25,16.48,0,3.07-.14,3.75.95,3.79,3.85C551.48,30.13,551.58,30.13,538.61,30.13Z"/><text class="cls-3" transform="translate(1149.71 338.68)"><tspan class="cls-4">a</tspan><tspan x="18.72" y="0">t </tspan><tspan class="cls-5" x="39.2" y="0">S</tspan><tspan class="cls-6" x="78.66" y="0">ac </tspan><tspan class="cls-7" x="163.69" y="0">S</tspan><tspan class="cls-6" x="202.21" y="0">t</tspan><tspan class="cls-8" x="228.63" y="0">a</tspan><tspan class="cls-9" x="266.07" y="0">t</tspan><tspan class="cls-6" x="292.14" y="0">e</tspan></text></svg>